<?xml version="1.0" standalone="no"?>
<!DOCTYPE svg PUBLIC "-//W3C//DTD SVG 20010904//EN"
 "http://www.w3.org/TR/2001/REC-SVG-20010904/DTD/svg10.dtd">
<svg version="1.0" xmlns="http://www.w3.org/2000/svg"
 width="512.000000pt" height="512.000000pt" viewBox="0 0 512.000000 512.000000"
 preserveAspectRatio="xMidYMid meet">

<g transform="translate(0.000000,512.000000) scale(0.100000,-0.100000)"
fill="#000000" stroke="none">
<path d="M4751 5084 c-151 -44 -299 -116 -451 -217 -53 -35 -181 -155 -430
-403 l-355 -354 -1530 -2 c-1451 -3 -1532 -4 -1563 -21 -46 -25 -72 -72 -72
-131 0 -68 29 -108 100 -140 39 -18 1633 -650 1959 -777 24 -9 -8 -43 -589
-624 l-615 -615 -595 -2 -595 -3 -9 -28 c-8 -22 -6 -31 9 -46 11 -10 200 -89
420 -176 637 -251 572 -222 586 -262 10 -33 9 -37 -19 -66 -73 -75 -77 -159
-13 -227 62 -65 146 -67 220 -3 40 34 44 35 79 24 l37 -11 185 -476 c102 -262
191 -485 198 -495 16 -23 55 -25 76 -3 14 14 16 81 16 592 l0 577 620 620
c340 340 621 617 623 615 3 -3 179 -453 392 -1000 213 -547 394 -1006 402
-1020 24 -41 63 -63 117 -67 60 -5 105 18 136 69 20 33 20 54 20 1563 l0 1529
359 361 c390 392 431 441 531 650 77 160 113 283 114 390 1 106 -16 147 -80
182 -55 32 -169 31 -283 -3z"/>
</g>
</svg>
