<?xml version="1.0" standalone="no"?>
<!DOCTYPE svg PUBLIC "-//W3C//DTD SVG 20010904//EN"
 "http://www.w3.org/TR/2001/REC-SVG-20010904/DTD/svg10.dtd">
<svg version="1.0" xmlns="http://www.w3.org/2000/svg"
 width="512.000000pt" height="512.000000pt" viewBox="0 0 512.000000 512.000000"
 preserveAspectRatio="xMidYMid meet">

<g transform="translate(0.000000,512.000000) scale(0.100000,-0.100000)"
fill="#000000" stroke="none">
<path d="M2430 5104 c-317 -68 -521 -401 -440 -718 28 -110 74 -190 156 -272
230 -232 598 -232 828 0 82 82 128 162 156 272 108 423 -269 811 -700 718z
m230 -349 l0 -165 170 -85 170 -85 -42 -85 c-23 -47 -46 -85 -50 -85 -5 0 -98
45 -207 99 -123 62 -207 110 -220 127 -20 25 -21 38 -21 235 l0 209 100 0 100
0 0 -165z"/>
<path d="M910 3141 c-83 -26 -150 -82 -191 -161 l-24 -45 -3 -482 -3 -483 101
0 100 0 0 188 c0 151 4 197 18 242 53 164 157 272 320 333 53 19 80 21 407 25
386 4 445 -2 553 -55 71 -35 181 -142 215 -209 46 -91 57 -156 57 -348 l0
-176 100 0 100 0 0 176 c0 192 11 257 57 348 34 67 144 174 215 209 108 53
167 59 553 55 327 -4 354 -6 407 -25 163 -61 267 -169 320 -333 14 -45 18 -91
18 -242 l0 -188 100 0 101 0 -3 483 -3 482 -27 50 c-31 60 -77 104 -138 136
l-45 24 -1640 2 c-902 1 -1651 -2 -1665 -6z"/>
<path d="M1285 2542 c-103 -36 -175 -119 -194 -226 -6 -33 -11 -124 -11 -203
l0 -143 590 0 590 0 0 183 c0 170 -2 185 -24 233 -28 61 -82 115 -145 146 -45
22 -54 23 -401 25 -317 3 -360 1 -405 -15z"/>
<path d="M3062 2545 c-78 -24 -138 -78 -178 -160 -22 -47 -24 -60 -24 -232 l0
-183 590 0 590 0 0 143 c0 79 -5 170 -11 203 -20 109 -99 198 -203 229 -68 21
-699 21 -764 0z"/>
<path d="M383 1749 c-60 -23 -122 -80 -155 -141 -22 -42 -23 -53 -26 -335 l-3
-293 2361 0 2361 0 -3 293 c-3 282 -4 293 -26 335 -33 62 -96 118 -158 142
-55 20 -64 20 -2177 19 -2093 0 -2123 0 -2174 -20z m3947 -469 l0 -100 -95 0
-95 0 0 100 0 100 95 0 95 0 0 -100z m400 0 l0 -100 -100 0 -100 0 0 100 0
100 100 0 100 0 0 -100z"/>
<path d="M200 395 l0 -395 108 0 108 0 38 157 c42 171 56 207 85 223 27 14
4015 14 4042 0 29 -16 43 -52 85 -222 l38 -158 108 0 108 0 0 395 0 395 -2360
0 -2360 0 0 -395z"/>
</g>
</svg>
