<?xml version="1.0" standalone="no"?>
<!DOCTYPE svg PUBLIC "-//W3C//DTD SVG 20010904//EN"
 "http://www.w3.org/TR/2001/REC-SVG-20010904/DTD/svg10.dtd">
<svg version="1.0" xmlns="http://www.w3.org/2000/svg"
 width="512.000000pt" height="512.000000pt" viewBox="0 0 512.000000 512.000000"
 preserveAspectRatio="xMidYMid meet">

<g transform="translate(0.000000,512.000000) scale(0.100000,-0.100000)"
fill="#000000" stroke="none">
<path d="M1310 5104 c-38 -14 -137 -108 -661 -633 -583 -583 -618 -619 -634
-670 -20 -61 -16 -130 11 -183 9 -18 287 -304 618 -636 459 -460 613 -608 650
-627 113 -56 250 -12 309 100 28 52 29 155 3 205 -10 19 -196 214 -414 433
l-397 397 2061 0 c2230 0 2100 -3 2175 52 43 32 79 96 86 156 11 96 -42 188
-137 238 -34 18 -111 19 -2108 24 l-2072 5 391 390 c219 218 400 408 412 430
27 51 29 155 4 201 -21 41 -71 90 -110 110 -44 23 -133 27 -187 8z"/>
<path d="M3630 2769 c-56 -25 -86 -53 -113 -104 -28 -52 -29 -155 -3 -205 10
-19 196 -214 414 -432 l397 -398 -2061 0 c-2230 0 -2100 3 -2175 -52 -43 -32
-79 -96 -86 -156 -11 -96 42 -188 137 -238 34 -18 111 -19 2108 -24 l2072 -5
-391 -390 c-219 -218 -400 -408 -412 -430 -27 -51 -29 -155 -4 -201 58 -109
173 -156 288 -119 51 16 87 51 670 634 583 583 618 619 634 670 20 61 16 130
-11 183 -9 18 -287 304 -618 636 -459 460 -613 608 -650 627 -62 31 -133 33
-196 4z"/>
</g>
</svg>
